<?xml version="1.0" encoding="utf-8"?>
<!-- Generator: Adobe Illustrator 22.0.0, SVG Export Plug-In . SVG Version: 6.00 Build 0)  -->
<svg version="1.1" id="Layer_2_1_" xmlns="http://www.w3.org/2000/svg" xmlns:xlink="http://www.w3.org/1999/xlink" x="0px" y="0px"
	 viewBox="0 0 994.7 527.6" style="enable-background:new 0 0 994.7 527.6;" xml:space="preserve">
<style type="text/css">
	.st0{fill:#FFFFFF;}
	.st1{font-family:'MyriadPro-Regular';}
	.st2{font-size:150px;}
	.st3{font-family:'Raginy-Regular';}
	.st4{font-size:65px;}
</style>
<path class="st0" d="M130.8,59.7c0,0-44.6,57-42.1,147.9c2.5,91.9,35,133.8,43.9,149.7c0,0-120.5-15.7-131.7-133.7
	C-9.5,115.6,78.7,61.6,130.8,59.7z"/>
<path class="st0" d="M555.5,14l100.3,172.8c7.8,13.4,7.8,29.9,0,43.2l-31.3,53.6l-110.9-195L555.5,14z"/>
<path class="st0" d="M486.4,300.5L471.8,326l-42.6,73.6L331,227.1c-7.5-13.2-7.5-29.4,0-42.5l30.5-53.9l96,170L486.4,300.5z"/>
<path class="st0" d="M859.3,203c0,0,0.9,44.8-14.3,84.8c-0.4,1-21.7-33.5-42-66.9l0.7,91.1h-74L728,99.8h66.6l7.6,12L859.3,203z"/>
<path class="st0" d="M461.5,77.3c0,0,128.5,222.5,130,225c0,0,7.1,0,26,0l-55,97.3c-5.1-8.9-130.2-223.9-143-246.1
	C419.4,153.2,458.3,85.5,461.5,77.3z"/>
<path class="st0" d="M158.4,99.7c14.6,0,97,23.7,96.8,105.3c-0.2,83.4-70.9,105.8-95.2,107c0,0,25.9-16.7,26.5-102.3
	C187.1,118.3,158.4,99.7,158.4,99.7z"/>
<path class="st0" d="M831,59.7c0,0,44.6,57,42.1,147.9c-2.5,91.9-35,133.8-43.9,149.7c0,0,120.5-15.7,131.7-133.7
	C971.2,115.6,883.1,61.6,831,59.7z"/>
<text transform="matrix(1 0 0 1 932 113.3002)" class="st0 st1 st2">®</text>
<text transform="matrix(1 0 0 1 38 509)" class="st0 st3 st4">Think Smart Think Own</text>
</svg>
